<svg xmlns="http://www.w3.org/2000/svg" viewBox="0 0 1200 800" role="img" aria-label="Blue energy corridor">
  <defs>
    <linearGradient id="g" x1="0" x2="1" y1="0" y2="1"><stop stop-color="#38BDF8"/><stop offset="1" stop-color="#22C55E"/></linearGradient>
    <filter id="blur"><feGaussianBlur stdDeviation="42"/></filter>
  </defs>
  <rect width="1200" height="800" fill="#061018"/>
  <path d="M0 520 C180 450 300 650 480 560 C680 460 820 600 1200 430 L1200 800 L0 800Z" fill="url(#g)" opacity=".58"/>
  <path d="M0 610 C250 520 400 720 650 590 C820 500 980 640 1200 540 L1200 800 L0 800Z" fill="#0B1F2A" opacity=".86"/>
  <circle cx="260" cy="190" r="150" fill="#38BDF8" opacity=".18" filter="url(#blur)"/>
  <circle cx="940" cy="210" r="190" fill="#22C55E" opacity=".16" filter="url(#blur)"/>
  <g stroke="#BDEBFF" stroke-opacity=".25" fill="none">
    <path d="M180 240 L410 180 L620 270 L870 160 L1020 250"/>
    <path d="M410 180 L500 420 L760 380 L870 160"/>
  </g>
  <g fill="#BDEBFF" opacity=".7">
    <circle cx="180" cy="240" r="5"/><circle cx="410" cy="180" r="5"/><circle cx="620" cy="270" r="5"/><circle cx="870" cy="160" r="5"/><circle cx="1020" cy="250" r="5"/><circle cx="500" cy="420" r="5"/><circle cx="760" cy="380" r="5"/>
  </g>
  <text x="72" y="108" fill="#F2EFE7" font-family="Inter,Arial" font-size="42" font-weight="600">Blue energy corridor</text>
</svg>
